<svg width="20" height="19" viewBox="0 0 20 19" fill="none" xmlns="http://www.w3.org/2000/svg">
<path d="M18.25 4H14.4344C14.2539 2.95477 13.71 2.00689 12.8986 1.32364C12.0873 0.640399 11.0607 0.265715 10 0.265715C8.9393 0.265715 7.91269 0.640399 7.10136 1.32364C6.29002 2.00689 5.74611 2.95477 5.56562 4H1.75C1.35218 4 0.970644 4.15804 0.68934 4.43934C0.408035 4.72065 0.25 5.10218 0.25 5.5V17.5C0.25 17.8978 0.408035 18.2794 0.68934 18.5607C0.970644 18.842 1.35218 19 1.75 19H18.25C18.6478 19 19.0294 18.842 19.3107 18.5607C19.592 18.2794 19.75 17.8978 19.75 17.5V5.5C19.75 5.10218 19.592 4.72065 19.3107 4.43934C19.0294 4.15804 18.6478 4 18.25 4V4ZM10 1.75C10.6649 1.75127 11.3107 1.97273 11.8365 2.37979C12.3623 2.78684 12.7385 3.35658 12.9062 4H7.09375C7.26154 3.35658 7.6377 2.78684 8.16348 2.37979C8.68927 1.97273 9.33506 1.75127 10 1.75V1.75ZM18.25 17.5H1.75V5.5H5.5V7.75C5.5 7.94891 5.57902 8.13968 5.71967 8.28033C5.86032 8.42098 6.05109 8.5 6.25 8.5C6.44891 8.5 6.63968 8.42098 6.78033 8.28033C6.92098 8.13968 7 7.94891 7 7.75V5.5H13V7.75C13 7.94891 13.079 8.13968 13.2197 8.28033C13.3603 8.42098 13.5511 8.5 13.75 8.5C13.9489 8.5 14.1397 8.42098 14.2803 8.28033C14.421 8.13968 14.5 7.94891 14.5 7.75V5.5H18.25V17.5Z" fill="black"/>
</svg>
